Coordinates
version=1
nRows=14
nColumns=40
inDegrees=yes

Units are S.I. units (second, meters, Newtons, ...)
If the header above contains a line with 'inDegrees', this indicates whether rotational values are in degrees (yes) or radians (no).

endheader
time	pelvis_tilt	pelvis_list	pelvis_rotation	pelvis_tx	pelvis_ty	pelvis_tz	hip_flexion_r	hip_adduction_r	hip_rotation_r	knee_angle_r	knee_angle_r_beta	ankle_angle_r	subtalar_angle_r	mtp_angle_r	hip_flexion_l	hip_adduction_l	hip_rotation_l	knee_angle_l	knee_angle_l_beta	ankle_angle_l	subtalar_angle_l	mtp_angle_l	lumbar_extension	lumbar_bending	lumbar_rotation	arm_flex_r	arm_add_r	arm_rot_r	elbow_flex_r	pro_sup_r	wrist_flex_r	wrist_dev_r	arm_flex_l	arm_add_l	arm_rot_l	elbow_flex_l	pro_sup_l	wrist_flex_l	wrist_dev_l
      6.62500000	    -89.20345927	     89.89377852	    -89.19753639	      0.30812392	      0.94824618	      0.76329931	     26.66459520	    -43.22690377	    -34.20415076	     30.35078028	      0.52972105	    -18.94599619	      0.00000000	      0.00000000	     20.55062411	    -40.65325743	    -35.72963261	     16.64260516	      0.29046826	    -27.36085102	      0.00000000	      0.00000000	    -55.88372922	     -6.36141626	     -4.87252004	      0.00000000	    -16.48576557	      0.00000000	     75.10729361	     44.94531084	      0.00000000	      0.00000000	      0.00000000	    -16.48576557	      0.00000000	     75.10729361	     44.94531084	      0.00000000	      0.00000000
      6.63000000	    -89.19807225	     89.89525989	    -89.19215959	      0.30768146	      0.94818974	      0.76375401	     26.56290733	    -43.20396863	    -34.28010057	     30.28936282	      0.52864911	    -18.93733508	      0.00000000	      0.00000000	     20.46936883	    -40.61246545	    -35.75576805	     16.59362795	      0.28961344	    -27.36138289	      0.00000000	      0.00000000	    -55.60479848	     -6.35432859	     -4.84467669	      0.00000000	    -16.48547478	      0.00000000	     75.10725254	     44.94536906	      0.00000000	      0.00000000	      0.00000000	    -16.48547478	      0.00000000	     75.10725254	     44.94536906	      0.00000000	      0.00000000
      6.63500000	    -89.21185177	     89.89349954	    -89.20589629	      0.30726649	      0.94817989	      0.76459781	     26.34420611	    -43.01188103	    -34.22368922	     29.88944614	      0.52166925	    -19.06197997	      0.00000000	      0.00000000	     20.13856025	    -40.40858134	    -35.74684105	     16.06648562	      0.28041307	    -27.56158697	      0.00000000	      0.00000000	    -55.39296954	     -6.40861044	     -4.94794613	      0.00000000	    -16.48271800	      0.00000000	     75.10686348	     44.94591867	      0.00000000	      0.00000000	      0.00000000	    -16.48271800	      0.00000000	     75.10686348	     44.94591867	      0.00000000	      0.00000000
      6.64000000	    -89.19480539	     89.89451591	    -89.18883744	      0.30679213	      0.94808282	      0.76504735	     26.23323195	    -42.99240500	    -34.28261822	     29.83574402	      0.52073197	    -19.05364867	      0.00000000	      0.00000000	     20.07779515	    -40.35308697	    -35.78477407	     16.01055135	      0.27943684	    -27.56006710	      0.00000000	      0.00000000	    -55.12689456	     -6.39696726	     -4.92803846	      0.00000000	    -16.48244325	      0.00000000	     75.10682475	     44.94597319	      0.00000000	      0.00000000	      0.00000000	    -16.48244325	      0.00000000	     75.10682475	     44.94597319	      0.00000000	      0.00000000
      6.64500000	    -89.20347345	     89.89268811	    -89.19742109	      0.30639710	      0.94805210	      0.76587455	     26.01297322	    -42.80895437	    -34.21578911	     29.44976427	      0.51399535	    -19.19782083	      0.00000000	      0.00000000	     19.75759081	    -40.14622216	    -35.77407235	     15.48182597	      0.27020884	    -27.77427153	      0.00000000	      0.00000000	    -54.92803959	     -6.42169773	     -5.01131533	      0.00000000	    -16.47953613	      0.00000000	     75.10641532	     44.94654725	      0.00000000	      0.00000000	      0.00000000	    -16.47953613	      0.00000000	     75.10641532	     44.94654725	      0.00000000	      0.00000000
      6.65000000	    -89.19767156	     89.89351001	    -89.19148092	      0.30591523	      0.94802955	      0.76638242	     25.88241185	    -42.76380927	    -34.31056592	     29.34803340	      0.51221981	    -19.17571258	      0.00000000	      0.00000000	     19.65442546	    -40.08453566	    -35.84240594	     15.38424519	      0.26850573	    -27.77477028	      0.00000000	      0.00000000	    -54.67207504	     -6.44713750	     -5.01833292	      0.00000000	    -16.47902799	      0.00000000	     75.10634384	     44.94664709	      0.00000000	      0.00000000	      0.00000000	    -16.47902799	      0.00000000	     75.10634384	     44.94664709	      0.00000000	      0.00000000
      6.65500000	    -89.18925681	     89.89428214	    -89.18284582	      0.30540763	      0.94796221	      0.76685014	     25.73604023	    -42.71926604	    -34.38105124	     29.23040457	      0.51016680	    -19.16364302	      0.00000000	      0.00000000	     19.53974255	    -40.01495757	    -35.90630282	     15.26756886	      0.26646935	    -27.77028412	      0.00000000	      0.00000000	    -54.38910688	     -6.44039868	     -5.01672207	      0.00000000	    -16.47866940	      0.00000000	     75.10629340	     44.94671745	      0.00000000	      0.00000000	      0.00000000	    -16.47866940	      0.00000000	     75.10629340	     44.94671745	      0.00000000	      0.00000000
      6.66000000	    -89.20555346	     89.89114622	    -89.19938002	      0.30507435	      0.94798809	      0.76782964	     25.46571622	    -42.47581963	    -34.31448496	     28.71220938	      0.50112259	    -19.35527217	      0.00000000	      0.00000000	     19.09907753	    -39.72124338	    -35.82702949	     14.48117490	      0.25274418	    -28.12942511	      0.00000000	      0.00000000	    -54.21871111	     -6.47936730	     -5.23554313	      0.00000000	    -16.47539573	      0.00000000	     75.10583349	     44.94735653	      0.00000000	      0.00000000	      0.00000000	    -16.47539573	      0.00000000	     75.10583349	     44.94735653	      0.00000000	      0.00000000
      6.66500000	    -89.19324874	     89.89262907	    -89.18701386	      0.30458994	      0.94792029	      0.76823314	     25.33241290	    -42.44321015	    -34.40313875	     28.63134011	      0.49971115	    -19.32482421	      0.00000000	      0.00000000	     19.03619908	    -39.66594900	    -35.88337925	     14.42497948	      0.25176339	    -28.12778672	      0.00000000	      0.00000000	    -53.93393001	     -6.47109085	     -5.21440487	      0.00000000	    -16.47508707	      0.00000000	     75.10579019	     44.94741644	      0.00000000	      0.00000000	      0.00000000	    -16.47508707	      0.00000000	     75.10579019	     44.94741644	      0.00000000	      0.00000000
      6.67000000	    -89.20696302	     89.89070656	    -89.20054624	      0.30413763	      0.94785371	      0.76905924	     25.05188548	    -42.25649465	    -34.46050051	     28.17219553	      0.49169757	    -19.34436509	      0.00000000	      0.00000000	     18.75083036	    -39.50383036	    -35.98161691	     14.01482702	      0.24460488	    -28.26199518	      0.00000000	      0.00000000	    -53.74465973	     -6.47053493	     -5.30635791	      0.00000000	    -16.47326650	      0.00000000	     75.10553492	     44.94776866	      0.00000000	      0.00000000	      0.00000000	    -16.47326650	      0.00000000	     75.10553492	     44.94776866	      0.00000000	      0.00000000
      6.67500000	    -89.19152137	     89.89141003	    -89.18492084	      0.30370888	      0.94776832	      0.76947474	     24.93845315	    -42.23134730	    -34.50534087	     28.11573386	      0.49071213	    -19.35392985	      0.00000000	      0.00000000	     18.68649102	    -39.43694822	    -36.00698817	     13.93247743	      0.24316760	    -28.28072720	      0.00000000	      0.00000000	    -53.46051392	     -6.48077659	     -5.29004655	      0.00000000	    -16.47294613	      0.00000000	     75.10549003	     44.94783044	      0.00000000	      0.00000000	      0.00000000	    -16.47294613	      0.00000000	     75.10549003	     44.94783044	      0.00000000	      0.00000000
      6.68000000	    -89.21163505	     89.88933471	    -89.20521196	      0.30331284	      0.94776525	      0.77034255	     24.68946391	    -42.01099334	    -34.45183651	     27.64869192	      0.48256071	    -19.53263371	      0.00000000	      0.00000000	     18.29906977	    -39.19058427	    -35.98172141	     13.26179072	      0.23146191	    -28.64782771	      0.00000000	      0.00000000	    -53.26318417	     -6.50894226	     -5.37059223	      0.00000000	    -16.46954442	      0.00000000	     75.10501391	     44.94848311	      0.00000000	      0.00000000	      0.00000000	    -16.46954442	      0.00000000	     75.10501391	     44.94848311	      0.00000000	      0.00000000
      6.68500000	    -89.20705732	     89.89049891	    -89.20070756	      0.30282969	      0.94769886	      0.77077161	     24.55512513	    -41.97867535	    -34.55767328	     27.55970746	      0.48100764	    -19.50651659	      0.00000000	      0.00000000	     18.21214068	    -39.13469857	    -36.04248689	     13.19172578	      0.23023905	    -28.63662684	      0.00000000	      0.00000000	    -52.97738372	     -6.51432276	     -5.34771971	      0.00000000	    -16.46918972	      0.00000000	     75.10496433	     44.94855075	      0.00000000	      0.00000000	      0.00000000	    -16.46918972	      0.00000000	     75.10496433	     44.94855075	      0.00000000	      0.00000000
      6.69000000	    -89.22629634	     89.88825190	    -89.21994667	      0.30241041	      0.94761515	      0.77159579	     24.30036892	    -41.77619947	    -34.53041309	     27.09691134	      0.47293032	    -19.65772347	      0.00000000	      0.00000000	     17.87054440	    -38.91855777	    -36.05246175	     12.63089891	      0.22045077	    -28.88261365	      0.00000000	      0.00000000	    -52.76181097	     -6.55695838	     -5.44337270	      0.00000000	    -16.46585498	      0.00000000	     75.10449875	     44.94918324	      0.00000000	      0.00000000	      0.00000000	    -16.46585498	      0.00000000	     75.10449875	     44.94918324	      0.00000000	      0.00000000
